<svg xmlns="http://www.w3.org/2000/svg" viewBox="0 0 230.35 260.69"><defs><style>.cls-1{fill:#423e3e;stroke:#423e3e;stroke-linecap:round;stroke-miterlimit:10;stroke-width:2px;}.cls-2{fill:#ffa999;}.cls-3{fill:#ffd98b;}.cls-4{font-size:8.2px;font-family:MyriadPro-Regular, Myriad Pro;}.cls-5{letter-spacing:0em;}.cls-6{letter-spacing:-0.01em;}.cls-7{fill:#a2dfff;}.cls-8{letter-spacing:-0.01em;}.cls-9{letter-spacing:-0.01em;}.cls-10{letter-spacing:0em;}.cls-11{letter-spacing:0em;}.cls-12{letter-spacing:0em;}.cls-13{letter-spacing:-0.02em;}.cls-14{letter-spacing:0em;}.cls-15{letter-spacing:0em;}.cls-16{letter-spacing:0em;}.cls-17{letter-spacing:0.01em;}.cls-18{letter-spacing:0.01em;}.cls-19{letter-spacing:-0.01em;}.cls-20{letter-spacing:-0.03em;}.cls-21{letter-spacing:0em;}.cls-22{letter-spacing:-0.01em;}.cls-23{letter-spacing:-0.01em;}</style></defs><title>cbai_scheme</title><g id="Layer_2" data-name="Layer 2"><g id="Layer_1-2" data-name="Layer 1"><line class="cls-1" x1="113.16" y1="15.45" x2="113.16" y2="24.15"/><path class="cls-1" d="M113.16,26l.66-1.16a.32.32,0,0,0-.27-.48h-.8a.31.31,0,0,0-.27.46Z"/><line class="cls-1" x1="113.16" y1="42.78" x2="113.16" y2="51.48"/><path class="cls-1" d="M113.16,53.27l.66-1.15a.32.32,0,0,0-.27-.48h-.8a.31.31,0,0,0-.27.46Z"/><line class="cls-1" x1="113.16" y1="70.1" x2="113.16" y2="78.8"/><path class="cls-1" d="M113.16,80.6l.66-1.16a.32.32,0,0,0-.27-.48h-.8a.31.31,0,0,0-.27.46Z"/><line class="cls-1" x1="113.16" y1="97.43" x2="113.16" y2="106.13"/><path class="cls-1" d="M113.16,107.92l.66-1.15a.32.32,0,0,0-.27-.48h-.8a.31.31,0,0,0-.27.46Z"/><line class="cls-1" x1="113.16" y1="124.75" x2="113.16" y2="133.45"/><path class="cls-1" d="M113.16,135.25l.66-1.16a.32.32,0,0,0-.27-.48h-.8a.31.31,0,0,0-.27.46Z"/><line class="cls-1" x1="113.16" y1="152.08" x2="113.16" y2="160.78"/><path class="cls-1" d="M113.16,162.57l.66-1.15a.32.32,0,0,0-.27-.49h-.8a.31.31,0,0,0-.27.47Z"/><line class="cls-1" x1="113.16" y1="179.4" x2="113.16" y2="188.1"/><path class="cls-1" d="M113.16,189.9l.66-1.16a.32.32,0,0,0-.27-.48h-.8a.31.31,0,0,0-.27.46Z"/><line class="cls-1" x1="113.16" y1="206.73" x2="113.16" y2="215.43"/><path class="cls-1" d="M113.16,217.22l.66-1.15a.32.32,0,0,0-.27-.49h-.8a.31.31,0,0,0-.27.47Z"/><line class="cls-1" x1="113.16" y1="234.05" x2="113.16" y2="242.75"/><path class="cls-1" d="M113.16,244.55l.66-1.16a.32.32,0,0,0-.27-.48h-.8a.31.31,0,0,0-.27.46Z"/><line class="cls-1" x1="143.51" y1="34.7" x2="152.21" y2="34.7"/><path class="cls-1" d="M154,34.7,152.85,34a.32.32,0,0,0-.48.28v.8a.31.31,0,0,0,.46.27Z"/><line class="cls-1" x1="143.51" y1="62.03" x2="152.21" y2="62.03"/><path class="cls-1" d="M154,62l-1.16-.67a.32.32,0,0,0-.48.28v.8a.31.31,0,0,0,.46.27Z"/><line class="cls-1" x1="169.87" y1="144.01" x2="178.57" y2="144.01"/><path class="cls-1" d="M180.36,144l-1.15-.67a.32.32,0,0,0-.48.28v.79a.31.31,0,0,0,.46.27Z"/><line class="cls-1" x1="82.8" y1="34.72" x2="74.1" y2="34.72"/><path class="cls-1" d="M72.3,34.72l1.16.67a.32.32,0,0,0,.48-.28v-.8a.31.31,0,0,0-.47-.27Z"/><line class="cls-1" x1="55.8" y1="144.72" x2="47.1" y2="144.72"/><path class="cls-1" d="M45.3,144.72l1.16.67a.32.32,0,0,0,.48-.28v-.8a.31.31,0,0,0-.47-.27Z"/><line class="cls-1" x1="82.8" y1="62.04" x2="74.1" y2="62.04"/><path class="cls-1" d="M72.3,62l1.16.67a.32.32,0,0,0,.48-.28v-.8a.31.31,0,0,0-.47-.27Z"/><rect class="cls-2" x="156.28" y="27.31" width="60.72" height="14.77" rx="4"/><rect class="cls-3" x="82.8" y="27.32" width="60.72" height="14.77" rx="4"/><text class="cls-4" transform="translate(88.15 37.12)">t<tspan class="cls-5" x="2.71" y="0">r</tspan><tspan x="5.43" y="0">immed </tspan><tspan class="cls-6" x="31.49" y="0">r</tspan><tspan x="34.08" y="0">eads</tspan></text><text class="cls-4" transform="translate(162.13 37.12)">with t<tspan class="cls-5" x="19.67" y="0">r</tspan><tspan x="22.38" y="0">imming</tspan></text><rect class="cls-2" x="9.53" y="27.33" width="60.72" height="14.77" rx="4"/><text class="cls-4" transform="translate(16.31 37.14)">w/o t<tspan class="cls-5" x="17.8" y="0">r</tspan><tspan x="20.51" y="0">imming</tspan></text><rect class="cls-7" x="82.8" width="60.72" height="14.77" rx="4"/><text class="cls-4" transform="translate(96.74 9.79)"><tspan class="cls-8">r</tspan><tspan class="cls-9" x="2.64" y="0">a</tspan><tspan x="6.53" y="0">w </tspan><tspan class="cls-6" x="14.3" y="0">r</tspan><tspan class="cls-10" x="16.89" y="0">eads</tspan></text><rect class="cls-3" x="82.8" y="54.65" width="60.72" height="14.77" rx="4"/><text class="cls-4" transform="translate(89.06 64.44)"><tspan class="cls-6">r</tspan><tspan x="2.6" y="0">ead mapping</tspan></text><rect class="cls-3" x="82.8" y="81.97" width="60.72" height="14.77" rx="4"/><text class="cls-4" transform="translate(90.29 91.77)">B<tspan class="cls-11" x="4.44" y="0">A</tspan><tspan x="9.43" y="0">M c</tspan><tspan class="cls-6" x="21.43" y="0">r</tspan><tspan class="cls-10" x="24.03" y="0">e</tspan><tspan class="cls-11" x="28.13" y="0">a</tspan><tspan x="32.05" y="0">tion</tspan></text><rect class="cls-3" x="82.8" y="109.3" width="60.72" height="14.77" rx="4"/><text class="cls-4" transform="translate(90.49 119.09)">ind<tspan class="cls-12" x="11.09" y="0">e</tspan><tspan class="cls-13" x="15.17" y="0">x</tspan><tspan class="cls-10" x="18.85" y="0">ed B</tspan><tspan class="cls-14" x="33.76" y="0">A</tspan><tspan class="cls-15" x="38.74" y="0">M</tspan></text><rect class="cls-3" x="56.44" y="136.62" width="113.43" height="14.77" rx="4"/><text class="cls-4" transform="translate(58.43 146.42)">Base <tspan class="cls-16" x="17.49" y="0">Q</tspan><tspan x="23.16" y="0">uali</tspan><tspan class="cls-17" x="35.48" y="0">t</tspan><tspan x="38.26" y="0">y </tspan><tspan class="cls-18" x="43.86" y="0">S</tspan><tspan class="cls-19" x="47.95" y="0">c</tspan><tspan class="cls-10" x="51.58" y="0">o</tspan><tspan class="cls-6" x="56.08" y="0">r</tspan><tspan x="58.68" y="0">e </tspan><tspan class="cls-5" x="64.52" y="0">R</tspan><tspan x="68.96" y="0">ecalib</tspan><tspan class="cls-8" x="89.21" y="0">r</tspan><tspan class="cls-14" x="91.85" y="0">a</tspan><tspan x="95.77" y="0">tion</tspan></text><rect class="cls-3" x="82.8" y="163.95" width="60.72" height="14.77" rx="4"/><text class="cls-4" transform="translate(88.98 173.74)"><tspan class="cls-20">V</tspan><tspan x="4.3" y="0">a</tspan><tspan class="cls-21" x="8.25" y="0">r</tspan><tspan class="cls-10" x="10.97" y="0">ia</tspan><tspan class="cls-11" x="16.84" y="0">n</tspan><tspan x="21.35" y="0">t calling</tspan></text><rect class="cls-3" x="79.07" y="191.27" width="68.18" height="14.77" rx="4"/><text class="cls-4" transform="translate(82.25 201.07)">geno<tspan class="cls-17" x="17.74" y="0">t</tspan><tspan class="cls-15" x="20.53" y="0">ype </tspan><tspan class="cls-14" x="34.9" y="0">v</tspan><tspan x="38.81" y="0">a</tspan><tspan class="cls-5" x="42.76" y="0">r</tspan><tspan x="45.47" y="0">ia</tspan><tspan class="cls-11" x="51.34" y="0">n</tspan><tspan x="55.86" y="0">ts</tspan></text><rect class="cls-3" x="81.3" y="218.6" width="63.71" height="14.77" rx="4"/><text class="cls-4" transform="translate(83.35 228.39)">annot<tspan class="cls-14" x="20.26" y="0">a</tspan><tspan class="cls-22" x="24.18" y="0">t</tspan><tspan x="26.85" y="0">e </tspan><tspan class="cls-11" x="32.69" y="0">v</tspan><tspan x="36.6" y="0">a</tspan><tspan class="cls-21" x="40.55" y="0">r</tspan><tspan x="43.27" y="0">ia</tspan><tspan class="cls-11" x="49.13" y="0">n</tspan><tspan class="cls-10" x="53.65" y="0">ts</tspan></text><rect class="cls-3" x="81.3" y="245.92" width="63.71" height="14.77" rx="4"/><text class="cls-4" transform="translate(86.26 255.71)"><tspan class="cls-11">v</tspan><tspan x="3.91" y="0">a</tspan><tspan class="cls-21" x="7.86" y="0">r</tspan><tspan x="10.57" y="0">ia</tspan><tspan class="cls-14" x="16.44" y="0">n</tspan><tspan x="20.96" y="0">ts s</tspan><tspan class="cls-19" x="31.9" y="0">c</tspan><tspan x="35.53" y="0">o</tspan><tspan class="cls-5" x="40.03" y="0">r</tspan><tspan x="42.74" y="0">ing</tspan></text><line class="cls-1" x1="70.25" y1="89.36" x2="78.95" y2="89.36"/><path class="cls-1" d="M80.74,89.36l-1.16-.67a.32.32,0,0,0-.48.28v.8a.31.31,0,0,0,.47.26Z"/><rect class="cls-2" x="156.28" y="54.65" width="60.72" height="14.77" rx="4"/><text class="cls-4" transform="translate(162.13 64.44)">with t<tspan class="cls-5" x="19.67" y="0">r</tspan><tspan x="22.38" y="0">imming</tspan></text><rect class="cls-2" x="182.63" y="136.62" width="47.72" height="14.77" rx="4"/><text class="cls-4" transform="translate(188.74 146.42)">with BQSR</text><rect class="cls-2" y="137.33" width="43.25" height="14.77" rx="4"/><text class="cls-4" transform="translate(4.81 147.14)">w/o BQSR</text><rect class="cls-2" x="9.53" y="54.65" width="60.72" height="14.77" rx="4"/><text class="cls-4" transform="translate(16.31 64.44)">w/o t<tspan class="cls-5" x="17.8" y="0">r</tspan><tspan x="20.51" y="0">imming</tspan></text><ellipse class="cls-7" cx="48.68" cy="89.36" rx="24.53" ry="14.02"/><text class="cls-4" transform="translate(34.34 86.85)">genome<tspan class="cls-6" x="-1.7" y="9.84">r</tspan><tspan x="0.9" y="9.84">e</tspan><tspan class="cls-23" x="5" y="9.84">f</tspan><tspan class="cls-10" x="7.29" y="9.84">e</tspan><tspan class="cls-6" x="11.4" y="9.84">r</tspan><tspan x="14" y="9.84">en</tspan><tspan class="cls-19" x="22.65" y="9.84">c</tspan><tspan class="cls-10" x="26.28" y="9.84">e</tspan></text></g></g></svg>